<svg width="800" height="3200" xmlns="http://www.w3.org/2000/svg"><g id="1" transform="translate(100 700) scale(100 -100)"><g fill="#FFFFFF" stroke="#000000" stroke-width="0.01"><rect x="4.3" y="6" width="0.4" height="0.08"/><rect x="4.3" y="6.08" width="0.4" height="0.08"/><rect x="4.3" y="6.16" width="0.4" height="0.08"/></g><g stroke="#888888" stroke-width="0.01" stroke-dasharray="0.02,0.02"><line x1="4" y1="2" x2="4" y2="6"/><line x1="5" y1="2" x2="5" y2="6"/><line x1="3" y1="3" x2="6" y2="3"/><line x1="3" y1="4" x2="6" y2="4"/><line x1="3" y1="5" x2="6" y2="5"/></g><rect x="3" y="2" width="3" height="4" fill="none" stroke="#000000" stroke-width="0.1"/><g fill="#FFFFFF" stroke="#000000" stroke-width="0.01"><rect x="1.3" y="6" width="0.4" height="0.08"/><rect x="1.3" y="6.08" width="0.4" height="0.08"/><rect x="1.3" y="6.16" width="0.4" height="0.08"/></g><g stroke="#888888" stroke-width="0.01" stroke-dasharray="0.02,0.02"><line x1="1" y1="2" x2="1" y2="6"/><line x1="2" y1="2" x2="2" y2="6"/><line x1="0" y1="3" x2="3" y2="3"/><line x1="0" y1="4" x2="3" y2="4"/><line x1="0" y1="5" x2="3" y2="5"/></g><rect x="0" y="2" width="3" height="4" fill="none" stroke="#000000" stroke-width="0.1"/><g fill="#FFFFFF" stroke="#000000" stroke-width="0.01"><rect x="3.3" y="-0.08000000000000004" width="0.4" height="0.08"/><rect x="3.3" y="-0.16" width="0.4" height="0.08"/><rect x="3.3" y="-0.23999999999999996" width="0.4" height="0.08"/></g><g stroke="#888888" stroke-width="0.01" stroke-dasharray="0.02,0.02"><line x1="1" y1="0" x2="1" y2="2"/><line x1="2" y1="0" x2="2" y2="2"/><line x1="3" y1="0" x2="3" y2="2"/><line x1="4" y1="0" x2="4" y2="2"/><line x1="5" y1="0" x2="5" y2="2"/><line x1="0" y1="1" x2="6" y2="1"/></g><rect x="0" y="0" width="6" height="2" fill="none" stroke="#000000" stroke-width="0.1"/><rect x="3" y="2" width="3" height="4" fill="none" stroke="#888888" stroke-width="0.08"/><g><line x1="4.34" y1="6" x2="4.66" y2="6" stroke="#000000" stroke-width="0.1"/><line x1="4.35" y1="6" x2="4.65" y2="6" stroke="#FFFFFF" stroke-width="0.12"/><line x1="4.35" y1="6" x2="4.65" y2="6" stroke="#888888" stroke-width="0.01" stroke-dasharray="0.02,0.02"/><line x1="4.34" y1="6" x2="4.66" y2="6" stroke="#000000" stroke-width="0.04"/></g><g><line x1="3.39" y1="6" x2="3.61" y2="6" stroke="#000000" stroke-width="0.1"/><line x1="3.4" y1="6" x2="3.6" y2="6" stroke="#FFFFFF" stroke-width="0.08"/><line x1="3.4" y1="6" x2="3.6" y2="6" stroke="#000000" stroke-width="0.01"/><rect x="3.49" y="5.99" width="0.02" height="0.02" fill="#888888" stroke="#000000" stroke-width="0.01"/></g><g><line x1="5.390000000000001" y1="6" x2="5.609999999999999" y2="6" stroke="#000000" stroke-width="0.1"/><line x1="5.4" y1="6" x2="5.6" y2="6" stroke="#FFFFFF" stroke-width="0.08"/><line x1="5.4" y1="6" x2="5.6" y2="6" stroke="#000000" stroke-width="0.01"/><rect x="5.49" y="5.99" width="0.02" height="0.02" fill="#888888" stroke="#000000" stroke-width="0.01"/></g><g><line x1="6" y1="2.39" x2="6" y2="2.61" stroke="#000000" stroke-width="0.1"/><line x1="6" y1="2.4" x2="6" y2="2.6" stroke="#FFFFFF" stroke-width="0.08"/><line x1="6" y1="2.4" x2="6" y2="2.6" stroke="#000000" stroke-width="0.01"/><rect x="5.99" y="2.49" width="0.02" height="0.02" fill="#888888" stroke="#000000" stroke-width="0.01"/></g><g><line x1="6" y1="3.39" x2="6" y2="3.61" stroke="#000000" stroke-width="0.1"/><line x1="6" y1="3.4" x2="6" y2="3.6" stroke="#FFFFFF" stroke-width="0.08"/><line x1="6" y1="3.4" x2="6" y2="3.6" stroke="#000000" stroke-width="0.01"/><rect x="5.99" y="3.49" width="0.02" height="0.02" fill="#888888" stroke="#000000" stroke-width="0.01"/></g><g><line x1="6" y1="4.390000000000001" x2="6" y2="4.609999999999999" stroke="#000000" stroke-width="0.1"/><line x1="6" y1="4.4" x2="6" y2="4.6" stroke="#FFFFFF" stroke-width="0.08"/><line x1="6" y1="4.4" x2="6" y2="4.6" stroke="#000000" stroke-width="0.01"/><rect x="5.99" y="4.49" width="0.02" height="0.02" fill="#888888" stroke="#000000" stroke-width="0.01"/></g><g><line x1="6" y1="5.390000000000001" x2="6" y2="5.609999999999999" stroke="#000000" stroke-width="0.1"/><line x1="6" y1="5.4" x2="6" y2="5.6" stroke="#FFFFFF" stroke-width="0.08"/><line x1="6" y1="5.4" x2="6" y2="5.6" stroke="#000000" stroke-width="0.01"/><rect x="5.99" y="5.49" width="0.02" height="0.02" fill="#888888" stroke="#000000" stroke-width="0.01"/></g><rect x="0" y="2" width="3" height="4" fill="none" stroke="#888888" stroke-width="0.08"/><g><line x1="1.34" y1="6" x2="1.66" y2="6" stroke="#000000" stroke-width="0.1"/><line x1="1.35" y1="6" x2="1.65" y2="6" stroke="#FFFFFF" stroke-width="0.12"/><line x1="1.35" y1="6" x2="1.65" y2="6" stroke="#888888" stroke-width="0.01" stroke-dasharray="0.02,0.02"/><line x1="1.34" y1="6" x2="1.66" y2="6" stroke="#000000" stroke-width="0.04"/></g><g><line x1="0.39" y1="6" x2="0.61" y2="6" stroke="#000000" stroke-width="0.1"/><line x1="0.4" y1="6" x2="0.6" y2="6" stroke="#FFFFFF" stroke-width="0.08"/><line x1="0.4" y1="6" x2="0.6" y2="6" stroke="#000000" stroke-width="0.01"/><rect x="0.49" y="5.99" width="0.02" height="0.02" fill="#888888" stroke="#000000" stroke-width="0.01"/></g><g><line x1="2.39" y1="6" x2="2.61" y2="6" stroke="#000000" stroke-width="0.1"/><line x1="2.4" y1="6" x2="2.6" y2="6" stroke="#FFFFFF" stroke-width="0.08"/><line x1="2.4" y1="6" x2="2.6" y2="6" stroke="#000000" stroke-width="0.01"/><rect x="2.49" y="5.99" width="0.02" height="0.02" fill="#888888" stroke="#000000" stroke-width="0.01"/></g><g><line x1="0" y1="2.39" x2="0" y2="2.61" stroke="#000000" stroke-width="0.1"/><line x1="0" y1="2.4" x2="0" y2="2.6" stroke="#FFFFFF" stroke-width="0.08"/><line x1="0" y1="2.4" x2="0" y2="2.6" stroke="#000000" stroke-width="0.01"/><rect x="-0.01" y="2.49" width="0.02" height="0.02" fill="#888888" stroke="#000000" stroke-width="0.01"/></g><g><line x1="0" y1="3.39" x2="0" y2="3.61" stroke="#000000" stroke-width="0.1"/><line x1="0" y1="3.4" x2="0" y2="3.6" stroke="#FFFFFF" stroke-width="0.08"/><line x1="0" y1="3.4" x2="0" y2="3.6" stroke="#000000" stroke-width="0.01"/><rect x="-0.01" y="3.49" width="0.02" height="0.02" fill="#888888" stroke="#000000" stroke-width="0.01"/></g><g><line x1="0" y1="4.390000000000001" x2="0" y2="4.609999999999999" stroke="#000000" stroke-width="0.1"/><line x1="0" y1="4.4" x2="0" y2="4.6" stroke="#FFFFFF" stroke-width="0.08"/><line x1="0" y1="4.4" x2="0" y2="4.6" stroke="#000000" stroke-width="0.01"/><rect x="-0.01" y="4.49" width="0.02" height="0.02" fill="#888888" stroke="#000000" stroke-width="0.01"/></g><g><line x1="0" y1="5.390000000000001" x2="0" y2="5.609999999999999" stroke="#000000" stroke-width="0.1"/><line x1="0" y1="5.4" x2="0" y2="5.6" stroke="#FFFFFF" stroke-width="0.08"/><line x1="0" y1="5.4" x2="0" y2="5.6" stroke="#000000" stroke-width="0.01"/><rect x="-0.01" y="5.49" width="0.02" height="0.02" fill="#888888" stroke="#000000" stroke-width="0.01"/></g><rect x="0" y="0" width="6" height="2" fill="none" stroke="#888888" stroke-width="0.08"/><g><line x1="3.3400000000000003" y1="0" x2="3.6599999999999997" y2="0" stroke="#000000" stroke-width="0.1"/><line x1="3.35" y1="0" x2="3.65" y2="0" stroke="#FFFFFF" stroke-width="0.12"/><line x1="3.35" y1="0" x2="3.65" y2="0" stroke="#888888" stroke-width="0.01" stroke-dasharray="0.02,0.02"/><line x1="3.3400000000000003" y1="0" x2="3.6599999999999997" y2="0" stroke="#000000" stroke-width="0.04"/></g><g><line x1="0.39" y1="0" x2="0.61" y2="0" stroke="#000000" stroke-width="0.1"/><line x1="0.4" y1="0" x2="0.6" y2="0" stroke="#FFFFFF" stroke-width="0.08"/><line x1="0.4" y1="0" x2="0.6" y2="0" stroke="#000000" stroke-width="0.01"/><rect x="0.49" y="-0.01" width="0.02" height="0.02" fill="#888888" stroke="#000000" stroke-width="0.01"/></g><g><line x1="1.39" y1="0" x2="1.61" y2="0" stroke="#000000" stroke-width="0.1"/><line x1="1.4" y1="0" x2="1.6" y2="0" stroke="#FFFFFF" stroke-width="0.08"/><line x1="1.4" y1="0" x2="1.6" y2="0" stroke="#000000" stroke-width="0.01"/><rect x="1.49" y="-0.01" width="0.02" height="0.02" fill="#888888" stroke="#000000" stroke-width="0.01"/></g><g><line x1="2.39" y1="0" x2="2.61" y2="0" stroke="#000000" stroke-width="0.1"/><line x1="2.4" y1="0" x2="2.6" y2="0" stroke="#FFFFFF" stroke-width="0.08"/><line x1="2.4" y1="0" x2="2.6" y2="0" stroke="#000000" stroke-width="0.01"/><rect x="2.49" y="-0.01" width="0.02" height="0.02" fill="#888888" stroke="#000000" stroke-width="0.01"/></g><g><line x1="4.390000000000001" y1="0" x2="4.609999999999999" y2="0" stroke="#000000" stroke-width="0.1"/><line x1="4.4" y1="0" x2="4.6" y2="0" stroke="#FFFFFF" stroke-width="0.08"/><line x1="4.4" y1="0" x2="4.6" y2="0" stroke="#000000" stroke-width="0.01"/><rect x="4.49" y="-0.01" width="0.02" height="0.02" fill="#888888" stroke="#000000" stroke-width="0.01"/></g><g><line x1="5.390000000000001" y1="0" x2="5.609999999999999" y2="0" stroke="#000000" stroke-width="0.1"/><line x1="5.4" y1="0" x2="5.6" y2="0" stroke="#FFFFFF" stroke-width="0.08"/><line x1="5.4" y1="0" x2="5.6" y2="0" stroke="#000000" stroke-width="0.01"/><rect x="5.49" y="-0.01" width="0.02" height="0.02" fill="#888888" stroke="#000000" stroke-width="0.01"/></g><g><line x1="0" y1="0.39" x2="0" y2="0.61" stroke="#000000" stroke-width="0.1"/><line x1="0" y1="0.4" x2="0" y2="0.6" stroke="#FFFFFF" stroke-width="0.08"/><line x1="0" y1="0.4" x2="0" y2="0.6" stroke="#000000" stroke-width="0.01"/><rect x="-0.01" y="0.49" width="0.02" height="0.02" fill="#888888" stroke="#000000" stroke-width="0.01"/></g><g><line x1="6" y1="0.39" x2="6" y2="0.61" stroke="#000000" stroke-width="0.1"/><line x1="6" y1="0.4" x2="6" y2="0.6" stroke="#FFFFFF" stroke-width="0.08"/><line x1="6" y1="0.4" x2="6" y2="0.6" stroke="#000000" stroke-width="0.01"/><rect x="5.99" y="0.49" width="0.02" height="0.02" fill="#888888" stroke="#000000" stroke-width="0.01"/></g><g><line x1="0" y1="1.39" x2="0" y2="1.61" stroke="#000000" stroke-width="0.1"/><line x1="0" y1="1.4" x2="0" y2="1.6" stroke="#FFFFFF" stroke-width="0.08"/><line x1="0" y1="1.4" x2="0" y2="1.6" stroke="#000000" stroke-width="0.01"/><rect x="-0.01" y="1.49" width="0.02" height="0.02" fill="#888888" stroke="#000000" stroke-width="0.01"/></g><g><line x1="6" y1="1.39" x2="6" y2="1.61" stroke="#000000" stroke-width="0.1"/><line x1="6" y1="1.4" x2="6" y2="1.6" stroke="#FFFFFF" stroke-width="0.08"/><line x1="6" y1="1.4" x2="6" y2="1.6" stroke="#000000" stroke-width="0.01"/><rect x="5.99" y="1.49" width="0.02" height="0.02" fill="#888888" stroke="#000000" stroke-width="0.01"/></g><g><line x1="3.3400000000000003" y1="2" x2="3.6599999999999997" y2="2" stroke="#000000" stroke-width="0.1"/><line x1="3.35" y1="2" x2="3.65" y2="2" stroke="#FFFFFF" stroke-width="0.12"/><line x1="3.35" y1="2" x2="3.65" y2="2" stroke="#888888" stroke-width="0.01" stroke-dasharray="0.02,0.02"/><line x1="3.3400000000000003" y1="2" x2="3.6599999999999997" y2="2" stroke="#000000" stroke-width="0.04"/></g><g><line x1="1.34" y1="2" x2="1.66" y2="2" stroke="#000000" stroke-width="0.1"/><line x1="1.35" y1="2" x2="1.65" y2="2" stroke="#FFFFFF" stroke-width="0.12"/><line x1="1.35" y1="2" x2="1.65" y2="2" stroke="#888888" stroke-width="0.01" stroke-dasharray="0.02,0.02"/><line x1="1.34" y1="2" x2="1.66" y2="2" stroke="#000000" stroke-width="0.04"/></g><g fill="#FFFFFF" stroke="#000000" stroke-width="0.01" transform="translate(3.5 5.5)"><rect x="-0.17500000000000002" y="-0.25" width="0.35000000000000003" height="0.5"/><line x1="-0.17500000000000002" y1="-0.16666666666666669" x2="0.17500000000000002" y2="-0.16666666666666669"/><line x1="-0.17500000000000002" y1="-0.08333333333333334" x2="0.17500000000000002" y2="-0.08333333333333334"/><line x1="-0.17500000000000002" y1="0" x2="0.17500000000000002" y2="0"/><line x1="-0.17500000000000002" y1="0.08333333333333331" x2="0.17500000000000002" y2="0.08333333333333331"/><line x1="-0.17500000000000002" y1="0.16666666666666669" x2="0.17500000000000002" y2="0.16666666666666669"/></g><g fill="#FFFFFF" stroke="#000000" stroke-width="0.01" transform="translate(0.5 3.5)"><rect x="-0.17500000000000002" y="-0.25" width="0.35000000000000003" height="0.5"/><line x1="-0.17500000000000002" y1="-0.16666666666666669" x2="0.17500000000000002" y2="-0.16666666666666669"/><line x1="-0.17500000000000002" y1="-0.08333333333333334" x2="0.17500000000000002" y2="-0.08333333333333334"/><line x1="-0.17500000000000002" y1="0" x2="0.17500000000000002" y2="0"/><line x1="-0.17500000000000002" y1="0.08333333333333331" x2="0.17500000000000002" y2="0.08333333333333331"/><line x1="-0.17500000000000002" y1="0.16666666666666669" x2="0.17500000000000002" y2="0.16666666666666669"/></g><g fill="#FFFFFF" stroke="#000000" stroke-width="0.01" transform="translate(1.5 0.5)"><rect x="-0.17500000000000002" y="-0.25" width="0.35000000000000003" height="0.5"/><line x1="-0.17500000000000002" y1="-0.16666666666666669" x2="0.17500000000000002" y2="-0.16666666666666669"/><line x1="-0.17500000000000002" y1="-0.08333333333333334" x2="0.17500000000000002" y2="-0.08333333333333334"/><line x1="-0.17500000000000002" y1="0" x2="0.17500000000000002" y2="0"/><line x1="-0.17500000000000002" y1="0.08333333333333331" x2="0.17500000000000002" y2="0.08333333333333331"/><line x1="-0.17500000000000002" y1="0.16666666666666669" x2="0.17500000000000002" y2="0.16666666666666669"/></g></g><text text-anchor="end" dominant-baseline="hanging" style="font: bold 72px serif" fill="#CCCCCC" transform="translate(750 50)">1</text><line x1="50" y1="800" x2="750" y2="800" stroke="#000000" stroke-width="0.01" stroke-dasharray="2,2"/><g id="2" transform="translate(100 1500) scale(100 -100)"><g stroke="#888888" stroke-width="0.01" stroke-dasharray="0.02,0.02"><line x1="4" y1="2" x2="4" y2="6"/><line x1="5" y1="2" x2="5" y2="6"/><line x1="3" y1="3" x2="6" y2="3"/><line x1="3" y1="4" x2="6" y2="4"/><line x1="3" y1="5" x2="6" y2="5"/></g><rect x="3" y="2" width="3" height="4" fill="none" stroke="#000000" stroke-width="0.1"/><g stroke="#888888" stroke-width="0.01" stroke-dasharray="0.02,0.02"><line x1="1" y1="2" x2="1" y2="6"/><line x1="2" y1="2" x2="2" y2="6"/><line x1="0" y1="3" x2="3" y2="3"/><line x1="0" y1="4" x2="3" y2="4"/><line x1="0" y1="5" x2="3" y2="5"/></g><rect x="0" y="2" width="3" height="4" fill="none" stroke="#000000" stroke-width="0.1"/><g stroke="#888888" stroke-width="0.01" stroke-dasharray="0.02,0.02"><line x1="1" y1="0" x2="1" y2="2"/><line x1="2" y1="0" x2="2" y2="2"/><line x1="3" y1="0" x2="3" y2="2"/><line x1="4" y1="0" x2="4" y2="2"/><line x1="5" y1="0" x2="5" y2="2"/><line x1="0" y1="1" x2="6" y2="1"/></g><rect x="0" y="0" width="6" height="2" fill="none" stroke="#000000" stroke-width="0.1"/><rect x="3" y="2" width="3" height="4" fill="none" stroke="#888888" stroke-width="0.08"/><g><line x1="3.39" y1="6" x2="3.61" y2="6" stroke="#000000" stroke-width="0.1"/><line x1="3.4" y1="6" x2="3.6" y2="6" stroke="#FFFFFF" stroke-width="0.08"/><line x1="3.4" y1="6" x2="3.6" y2="6" stroke="#000000" stroke-width="0.01"/><rect x="3.49" y="5.99" width="0.02" height="0.02" fill="#888888" stroke="#000000" stroke-width="0.01"/></g><g><line x1="4.390000000000001" y1="6" x2="4.609999999999999" y2="6" stroke="#000000" stroke-width="0.1"/><line x1="4.4" y1="6" x2="4.6" y2="6" stroke="#FFFFFF" stroke-width="0.08"/><line x1="4.4" y1="6" x2="4.6" y2="6" stroke="#000000" stroke-width="0.01"/><rect x="4.49" y="5.99" width="0.02" height="0.02" fill="#888888" stroke="#000000" stroke-width="0.01"/></g><g><line x1="5.390000000000001" y1="6" x2="5.609999999999999" y2="6" stroke="#000000" stroke-width="0.1"/><line x1="5.4" y1="6" x2="5.6" y2="6" stroke="#FFFFFF" stroke-width="0.08"/><line x1="5.4" y1="6" x2="5.6" y2="6" stroke="#000000" stroke-width="0.01"/><rect x="5.49" y="5.99" width="0.02" height="0.02" fill="#888888" stroke="#000000" stroke-width="0.01"/></g><g><line x1="6" y1="2.39" x2="6" y2="2.61" stroke="#000000" stroke-width="0.1"/><line x1="6" y1="2.4" x2="6" y2="2.6" stroke="#FFFFFF" stroke-width="0.08"/><line x1="6" y1="2.4" x2="6" y2="2.6" stroke="#000000" stroke-width="0.01"/><rect x="5.99" y="2.49" width="0.02" height="0.02" fill="#888888" stroke="#000000" stroke-width="0.01"/></g><g><line x1="6" y1="3.39" x2="6" y2="3.61" stroke="#000000" stroke-width="0.1"/><line x1="6" y1="3.4" x2="6" y2="3.6" stroke="#FFFFFF" stroke-width="0.08"/><line x1="6" y1="3.4" x2="6" y2="3.6" stroke="#000000" stroke-width="0.01"/><rect x="5.99" y="3.49" width="0.02" height="0.02" fill="#888888" stroke="#000000" stroke-width="0.01"/></g><g><line x1="6" y1="4.390000000000001" x2="6" y2="4.609999999999999" stroke="#000000" stroke-width="0.1"/><line x1="6" y1="4.4" x2="6" y2="4.6" stroke="#FFFFFF" stroke-width="0.08"/><line x1="6" y1="4.4" x2="6" y2="4.6" stroke="#000000" stroke-width="0.01"/><rect x="5.99" y="4.49" width="0.02" height="0.02" fill="#888888" stroke="#000000" stroke-width="0.01"/></g><g><line x1="6" y1="5.390000000000001" x2="6" y2="5.609999999999999" stroke="#000000" stroke-width="0.1"/><line x1="6" y1="5.4" x2="6" y2="5.6" stroke="#FFFFFF" stroke-width="0.08"/><line x1="6" y1="5.4" x2="6" y2="5.6" stroke="#000000" stroke-width="0.01"/><rect x="5.99" y="5.49" width="0.02" height="0.02" fill="#888888" stroke="#000000" stroke-width="0.01"/></g><rect x="0" y="2" width="3" height="4" fill="none" stroke="#888888" stroke-width="0.08"/><g><line x1="0.39" y1="6" x2="0.61" y2="6" stroke="#000000" stroke-width="0.1"/><line x1="0.4" y1="6" x2="0.6" y2="6" stroke="#FFFFFF" stroke-width="0.08"/><line x1="0.4" y1="6" x2="0.6" y2="6" stroke="#000000" stroke-width="0.01"/><rect x="0.49" y="5.99" width="0.02" height="0.02" fill="#888888" stroke="#000000" stroke-width="0.01"/></g><g><line x1="1.39" y1="6" x2="1.61" y2="6" stroke="#000000" stroke-width="0.1"/><line x1="1.4" y1="6" x2="1.6" y2="6" stroke="#FFFFFF" stroke-width="0.08"/><line x1="1.4" y1="6" x2="1.6" y2="6" stroke="#000000" stroke-width="0.01"/><rect x="1.49" y="5.99" width="0.02" height="0.02" fill="#888888" stroke="#000000" stroke-width="0.01"/></g><g><line x1="2.39" y1="6" x2="2.61" y2="6" stroke="#000000" stroke-width="0.1"/><line x1="2.4" y1="6" x2="2.6" y2="6" stroke="#FFFFFF" stroke-width="0.08"/><line x1="2.4" y1="6" x2="2.6" y2="6" stroke="#000000" stroke-width="0.01"/><rect x="2.49" y="5.99" width="0.02" height="0.02" fill="#888888" stroke="#000000" stroke-width="0.01"/></g><g><line x1="0" y1="2.39" x2="0" y2="2.61" stroke="#000000" stroke-width="0.1"/><line x1="0" y1="2.4" x2="0" y2="2.6" stroke="#FFFFFF" stroke-width="0.08"/><line x1="0" y1="2.4" x2="0" y2="2.6" stroke="#000000" stroke-width="0.01"/><rect x="-0.01" y="2.49" width="0.02" height="0.02" fill="#888888" stroke="#000000" stroke-width="0.01"/></g><g><line x1="0" y1="3.39" x2="0" y2="3.61" stroke="#000000" stroke-width="0.1"/><line x1="0" y1="3.4" x2="0" y2="3.6" stroke="#FFFFFF" stroke-width="0.08"/><line x1="0" y1="3.4" x2="0" y2="3.6" stroke="#000000" stroke-width="0.01"/><rect x="-0.01" y="3.49" width="0.02" height="0.02" fill="#888888" stroke="#000000" stroke-width="0.01"/></g><g><line x1="0" y1="4.390000000000001" x2="0" y2="4.609999999999999" stroke="#000000" stroke-width="0.1"/><line x1="0" y1="4.4" x2="0" y2="4.6" stroke="#FFFFFF" stroke-width="0.08"/><line x1="0" y1="4.4" x2="0" y2="4.6" stroke="#000000" stroke-width="0.01"/><rect x="-0.01" y="4.49" width="0.02" height="0.02" fill="#888888" stroke="#000000" stroke-width="0.01"/></g><g><line x1="0" y1="5.390000000000001" x2="0" y2="5.609999999999999" stroke="#000000" stroke-width="0.1"/><line x1="0" y1="5.4" x2="0" y2="5.6" stroke="#FFFFFF" stroke-width="0.08"/><line x1="0" y1="5.4" x2="0" y2="5.6" stroke="#000000" stroke-width="0.01"/><rect x="-0.01" y="5.49" width="0.02" height="0.02" fill="#888888" stroke="#000000" stroke-width="0.01"/></g><rect x="0" y="0" width="6" height="2" fill="none" stroke="#888888" stroke-width="0.08"/><g><line x1="0.39" y1="0" x2="0.61" y2="0" stroke="#000000" stroke-width="0.1"/><line x1="0.4" y1="0" x2="0.6" y2="0" stroke="#FFFFFF" stroke-width="0.08"/><line x1="0.4" y1="0" x2="0.6" y2="0" stroke="#000000" stroke-width="0.01"/><rect x="0.49" y="-0.01" width="0.02" height="0.02" fill="#888888" stroke="#000000" stroke-width="0.01"/></g><g><line x1="1.39" y1="0" x2="1.61" y2="0" stroke="#000000" stroke-width="0.1"/><line x1="1.4" y1="0" x2="1.6" y2="0" stroke="#FFFFFF" stroke-width="0.08"/><line x1="1.4" y1="0" x2="1.6" y2="0" stroke="#000000" stroke-width="0.01"/><rect x="1.49" y="-0.01" width="0.02" height="0.02" fill="#888888" stroke="#000000" stroke-width="0.01"/></g><g><line x1="2.39" y1="0" x2="2.61" y2="0" stroke="#000000" stroke-width="0.1"/><line x1="2.4" y1="0" x2="2.6" y2="0" stroke="#FFFFFF" stroke-width="0.08"/><line x1="2.4" y1="0" x2="2.6" y2="0" stroke="#000000" stroke-width="0.01"/><rect x="2.49" y="-0.01" width="0.02" height="0.02" fill="#888888" stroke="#000000" stroke-width="0.01"/></g><g><line x1="3.39" y1="0" x2="3.61" y2="0" stroke="#000000" stroke-width="0.1"/><line x1="3.4" y1="0" x2="3.6" y2="0" stroke="#FFFFFF" stroke-width="0.08"/><line x1="3.4" y1="0" x2="3.6" y2="0" stroke="#000000" stroke-width="0.01"/><rect x="3.49" y="-0.01" width="0.02" height="0.02" fill="#888888" stroke="#000000" stroke-width="0.01"/></g><g><line x1="4.390000000000001" y1="0" x2="4.609999999999999" y2="0" stroke="#000000" stroke-width="0.1"/><line x1="4.4" y1="0" x2="4.6" y2="0" stroke="#FFFFFF" stroke-width="0.08"/><line x1="4.4" y1="0" x2="4.6" y2="0" stroke="#000000" stroke-width="0.01"/><rect x="4.49" y="-0.01" width="0.02" height="0.02" fill="#888888" stroke="#000000" stroke-width="0.01"/></g><g><line x1="5.390000000000001" y1="0" x2="5.609999999999999" y2="0" stroke="#000000" stroke-width="0.1"/><line x1="5.4" y1="0" x2="5.6" y2="0" stroke="#FFFFFF" stroke-width="0.08"/><line x1="5.4" y1="0" x2="5.6" y2="0" stroke="#000000" stroke-width="0.01"/><rect x="5.49" y="-0.01" width="0.02" height="0.02" fill="#888888" stroke="#000000" stroke-width="0.01"/></g><g><line x1="0" y1="0.39" x2="0" y2="0.61" stroke="#000000" stroke-width="0.1"/><line x1="0" y1="0.4" x2="0" y2="0.6" stroke="#FFFFFF" stroke-width="0.08"/><line x1="0" y1="0.4" x2="0" y2="0.6" stroke="#000000" stroke-width="0.01"/><rect x="-0.01" y="0.49" width="0.02" height="0.02" fill="#888888" stroke="#000000" stroke-width="0.01"/></g><g><line x1="6" y1="0.39" x2="6" y2="0.61" stroke="#000000" stroke-width="0.1"/><line x1="6" y1="0.4" x2="6" y2="0.6" stroke="#FFFFFF" stroke-width="0.08"/><line x1="6" y1="0.4" x2="6" y2="0.6" stroke="#000000" stroke-width="0.01"/><rect x="5.99" y="0.49" width="0.02" height="0.02" fill="#888888" stroke="#000000" stroke-width="0.01"/></g><g><line x1="0" y1="1.39" x2="0" y2="1.61" stroke="#000000" stroke-width="0.1"/><line x1="0" y1="1.4" x2="0" y2="1.6" stroke="#FFFFFF" stroke-width="0.08"/><line x1="0" y1="1.4" x2="0" y2="1.6" stroke="#000000" stroke-width="0.01"/><rect x="-0.01" y="1.49" width="0.02" height="0.02" fill="#888888" stroke="#000000" stroke-width="0.01"/></g><g><line x1="6" y1="1.39" x2="6" y2="1.61" stroke="#000000" stroke-width="0.1"/><line x1="6" y1="1.4" x2="6" y2="1.6" stroke="#FFFFFF" stroke-width="0.08"/><line x1="6" y1="1.4" x2="6" y2="1.6" stroke="#000000" stroke-width="0.01"/><rect x="5.99" y="1.49" width="0.02" height="0.02" fill="#888888" stroke="#000000" stroke-width="0.01"/></g><g fill="#FFFFFF" stroke="#000000" stroke-width="0.01" transform="translate(3.5 5.5)"><rect x="-0.17500000000000002" y="-0.25" width="0.35000000000000003" height="0.5"/><line x1="-0.17500000000000002" y1="-0.16666666666666669" x2="0.17500000000000002" y2="-0.16666666666666669"/><line x1="-0.17500000000000002" y1="-0.08333333333333334" x2="0.17500000000000002" y2="-0.08333333333333334"/><line x1="-0.17500000000000002" y1="0" x2="0.17500000000000002" y2="0"/><line x1="-0.17500000000000002" y1="0.08333333333333331" x2="0.17500000000000002" y2="0.08333333333333331"/><line x1="-0.17500000000000002" y1="0.16666666666666669" x2="0.17500000000000002" y2="0.16666666666666669"/></g><g fill="#FFFFFF" stroke="#000000" stroke-width="0.01" transform="translate(0.5 3.5)"><rect x="-0.17500000000000002" y="-0.25" width="0.35000000000000003" height="0.5"/><line x1="-0.17500000000000002" y1="-0.16666666666666669" x2="0.17500000000000002" y2="-0.16666666666666669"/><line x1="-0.17500000000000002" y1="-0.08333333333333334" x2="0.17500000000000002" y2="-0.08333333333333334"/><line x1="-0.17500000000000002" y1="0" x2="0.17500000000000002" y2="0"/><line x1="-0.17500000000000002" y1="0.08333333333333331" x2="0.17500000000000002" y2="0.08333333333333331"/><line x1="-0.17500000000000002" y1="0.16666666666666669" x2="0.17500000000000002" y2="0.16666666666666669"/></g><g fill="#FFFFFF" stroke="#000000" stroke-width="0.01" transform="translate(1.5 0.5)"><rect x="-0.17500000000000002" y="-0.25" width="0.35000000000000003" height="0.5"/><line x1="-0.17500000000000002" y1="-0.16666666666666669" x2="0.17500000000000002" y2="-0.16666666666666669"/><line x1="-0.17500000000000002" y1="-0.08333333333333334" x2="0.17500000000000002" y2="-0.08333333333333334"/><line x1="-0.17500000000000002" y1="0" x2="0.17500000000000002" y2="0"/><line x1="-0.17500000000000002" y1="0.08333333333333331" x2="0.17500000000000002" y2="0.08333333333333331"/><line x1="-0.17500000000000002" y1="0.16666666666666669" x2="0.17500000000000002" y2="0.16666666666666669"/></g></g><text text-anchor="end" dominant-baseline="hanging" style="font: bold 72px serif" fill="#CCCCCC" transform="translate(750 850)">2</text><line x1="50" y1="1600" x2="750" y2="1600" stroke="#000000" stroke-width="0.01" stroke-dasharray="2,2"/><g id="3" transform="translate(100 2300) scale(100 -100)"><rect x="0" y="0" width="6" height="2" fill="#888888" stroke="#888888" stroke-width="0.1"/><g stroke="#000000" stroke-width="0.01"><line x1="0" y1="1" x2="6" y2="1"/></g><g stroke="#888888" stroke-width="0.01" stroke-dasharray="0.02,0.02"><line x1="4" y1="2" x2="4" y2="6"/><line x1="5" y1="2" x2="5" y2="6"/><line x1="3" y1="3" x2="6" y2="3"/><line x1="3" y1="4" x2="6" y2="4"/><line x1="3" y1="5" x2="6" y2="5"/></g><rect x="3" y="2" width="3" height="4" fill="none" stroke="#000000" stroke-width="0.1"/><g stroke="#888888" stroke-width="0.01" stroke-dasharray="0.02,0.02"><line x1="1" y1="2" x2="1" y2="6"/><line x1="2" y1="2" x2="2" y2="6"/><line x1="0" y1="3" x2="3" y2="3"/><line x1="0" y1="4" x2="3" y2="4"/><line x1="0" y1="5" x2="3" y2="5"/></g><rect x="0" y="2" width="3" height="4" fill="none" stroke="#000000" stroke-width="0.1"/><rect x="3" y="2" width="3" height="4" fill="none" stroke="#888888" stroke-width="0.08"/><g><line x1="3.39" y1="2" x2="3.61" y2="2" stroke="#000000" stroke-width="0.1"/><line x1="3.4" y1="2" x2="3.6" y2="2" stroke="#FFFFFF" stroke-width="0.08"/><line x1="3.4" y1="2" x2="3.6" y2="2" stroke="#000000" stroke-width="0.01"/><rect x="3.49" y="1.99" width="0.02" height="0.02" fill="#888888" stroke="#000000" stroke-width="0.01"/></g><g><line x1="3.39" y1="6" x2="3.61" y2="6" stroke="#000000" stroke-width="0.1"/><line x1="3.4" y1="6" x2="3.6" y2="6" stroke="#FFFFFF" stroke-width="0.08"/><line x1="3.4" y1="6" x2="3.6" y2="6" stroke="#000000" stroke-width="0.01"/><rect x="3.49" y="5.99" width="0.02" height="0.02" fill="#888888" stroke="#000000" stroke-width="0.01"/></g><g><line x1="4.390000000000001" y1="2" x2="4.609999999999999" y2="2" stroke="#000000" stroke-width="0.1"/><line x1="4.4" y1="2" x2="4.6" y2="2" stroke="#FFFFFF" stroke-width="0.08"/><line x1="4.4" y1="2" x2="4.6" y2="2" stroke="#000000" stroke-width="0.01"/><rect x="4.49" y="1.99" width="0.02" height="0.02" fill="#888888" stroke="#000000" stroke-width="0.01"/></g><g><line x1="4.390000000000001" y1="6" x2="4.609999999999999" y2="6" stroke="#000000" stroke-width="0.1"/><line x1="4.4" y1="6" x2="4.6" y2="6" stroke="#FFFFFF" stroke-width="0.08"/><line x1="4.4" y1="6" x2="4.6" y2="6" stroke="#000000" stroke-width="0.01"/><rect x="4.49" y="5.99" width="0.02" height="0.02" fill="#888888" stroke="#000000" stroke-width="0.01"/></g><g><line x1="5.390000000000001" y1="2" x2="5.609999999999999" y2="2" stroke="#000000" stroke-width="0.1"/><line x1="5.4" y1="2" x2="5.6" y2="2" stroke="#FFFFFF" stroke-width="0.08"/><line x1="5.4" y1="2" x2="5.6" y2="2" stroke="#000000" stroke-width="0.01"/><rect x="5.49" y="1.99" width="0.02" height="0.02" fill="#888888" stroke="#000000" stroke-width="0.01"/></g><g><line x1="5.390000000000001" y1="6" x2="5.609999999999999" y2="6" stroke="#000000" stroke-width="0.1"/><line x1="5.4" y1="6" x2="5.6" y2="6" stroke="#FFFFFF" stroke-width="0.08"/><line x1="5.4" y1="6" x2="5.6" y2="6" stroke="#000000" stroke-width="0.01"/><rect x="5.49" y="5.99" width="0.02" height="0.02" fill="#888888" stroke="#000000" stroke-width="0.01"/></g><g><line x1="6" y1="2.39" x2="6" y2="2.61" stroke="#000000" stroke-width="0.1"/><line x1="6" y1="2.4" x2="6" y2="2.6" stroke="#FFFFFF" stroke-width="0.08"/><line x1="6" y1="2.4" x2="6" y2="2.6" stroke="#000000" stroke-width="0.01"/><rect x="5.99" y="2.49" width="0.02" height="0.02" fill="#888888" stroke="#000000" stroke-width="0.01"/></g><g><line x1="6" y1="3.39" x2="6" y2="3.61" stroke="#000000" stroke-width="0.1"/><line x1="6" y1="3.4" x2="6" y2="3.6" stroke="#FFFFFF" stroke-width="0.08"/><line x1="6" y1="3.4" x2="6" y2="3.6" stroke="#000000" stroke-width="0.01"/><rect x="5.99" y="3.49" width="0.02" height="0.02" fill="#888888" stroke="#000000" stroke-width="0.01"/></g><g><line x1="6" y1="4.390000000000001" x2="6" y2="4.609999999999999" stroke="#000000" stroke-width="0.1"/><line x1="6" y1="4.4" x2="6" y2="4.6" stroke="#FFFFFF" stroke-width="0.08"/><line x1="6" y1="4.4" x2="6" y2="4.6" stroke="#000000" stroke-width="0.01"/><rect x="5.99" y="4.49" width="0.02" height="0.02" fill="#888888" stroke="#000000" stroke-width="0.01"/></g><g><line x1="6" y1="5.390000000000001" x2="6" y2="5.609999999999999" stroke="#000000" stroke-width="0.1"/><line x1="6" y1="5.4" x2="6" y2="5.6" stroke="#FFFFFF" stroke-width="0.08"/><line x1="6" y1="5.4" x2="6" y2="5.6" stroke="#000000" stroke-width="0.01"/><rect x="5.99" y="5.49" width="0.02" height="0.02" fill="#888888" stroke="#000000" stroke-width="0.01"/></g><rect x="0" y="2" width="3" height="4" fill="none" stroke="#888888" stroke-width="0.08"/><g><line x1="0.39" y1="2" x2="0.61" y2="2" stroke="#000000" stroke-width="0.1"/><line x1="0.4" y1="2" x2="0.6" y2="2" stroke="#FFFFFF" stroke-width="0.08"/><line x1="0.4" y1="2" x2="0.6" y2="2" stroke="#000000" stroke-width="0.01"/><rect x="0.49" y="1.99" width="0.02" height="0.02" fill="#888888" stroke="#000000" stroke-width="0.01"/></g><g><line x1="0.39" y1="6" x2="0.61" y2="6" stroke="#000000" stroke-width="0.1"/><line x1="0.4" y1="6" x2="0.6" y2="6" stroke="#FFFFFF" stroke-width="0.08"/><line x1="0.4" y1="6" x2="0.6" y2="6" stroke="#000000" stroke-width="0.01"/><rect x="0.49" y="5.99" width="0.02" height="0.02" fill="#888888" stroke="#000000" stroke-width="0.01"/></g><g><line x1="1.39" y1="2" x2="1.61" y2="2" stroke="#000000" stroke-width="0.1"/><line x1="1.4" y1="2" x2="1.6" y2="2" stroke="#FFFFFF" stroke-width="0.08"/><line x1="1.4" y1="2" x2="1.6" y2="2" stroke="#000000" stroke-width="0.01"/><rect x="1.49" y="1.99" width="0.02" height="0.02" fill="#888888" stroke="#000000" stroke-width="0.01"/></g><g><line x1="1.39" y1="6" x2="1.61" y2="6" stroke="#000000" stroke-width="0.1"/><line x1="1.4" y1="6" x2="1.6" y2="6" stroke="#FFFFFF" stroke-width="0.08"/><line x1="1.4" y1="6" x2="1.6" y2="6" stroke="#000000" stroke-width="0.01"/><rect x="1.49" y="5.99" width="0.02" height="0.02" fill="#888888" stroke="#000000" stroke-width="0.01"/></g><g><line x1="2.39" y1="2" x2="2.61" y2="2" stroke="#000000" stroke-width="0.1"/><line x1="2.4" y1="2" x2="2.6" y2="2" stroke="#FFFFFF" stroke-width="0.08"/><line x1="2.4" y1="2" x2="2.6" y2="2" stroke="#000000" stroke-width="0.01"/><rect x="2.49" y="1.99" width="0.02" height="0.02" fill="#888888" stroke="#000000" stroke-width="0.01"/></g><g><line x1="2.39" y1="6" x2="2.61" y2="6" stroke="#000000" stroke-width="0.1"/><line x1="2.4" y1="6" x2="2.6" y2="6" stroke="#FFFFFF" stroke-width="0.08"/><line x1="2.4" y1="6" x2="2.6" y2="6" stroke="#000000" stroke-width="0.01"/><rect x="2.49" y="5.99" width="0.02" height="0.02" fill="#888888" stroke="#000000" stroke-width="0.01"/></g><g><line x1="0" y1="2.39" x2="0" y2="2.61" stroke="#000000" stroke-width="0.1"/><line x1="0" y1="2.4" x2="0" y2="2.6" stroke="#FFFFFF" stroke-width="0.08"/><line x1="0" y1="2.4" x2="0" y2="2.6" stroke="#000000" stroke-width="0.01"/><rect x="-0.01" y="2.49" width="0.02" height="0.02" fill="#888888" stroke="#000000" stroke-width="0.01"/></g><g><line x1="0" y1="3.39" x2="0" y2="3.61" stroke="#000000" stroke-width="0.1"/><line x1="0" y1="3.4" x2="0" y2="3.6" stroke="#FFFFFF" stroke-width="0.08"/><line x1="0" y1="3.4" x2="0" y2="3.6" stroke="#000000" stroke-width="0.01"/><rect x="-0.01" y="3.49" width="0.02" height="0.02" fill="#888888" stroke="#000000" stroke-width="0.01"/></g><g><line x1="0" y1="4.390000000000001" x2="0" y2="4.609999999999999" stroke="#000000" stroke-width="0.1"/><line x1="0" y1="4.4" x2="0" y2="4.6" stroke="#FFFFFF" stroke-width="0.08"/><line x1="0" y1="4.4" x2="0" y2="4.6" stroke="#000000" stroke-width="0.01"/><rect x="-0.01" y="4.49" width="0.02" height="0.02" fill="#888888" stroke="#000000" stroke-width="0.01"/></g><g><line x1="0" y1="5.390000000000001" x2="0" y2="5.609999999999999" stroke="#000000" stroke-width="0.1"/><line x1="0" y1="5.4" x2="0" y2="5.6" stroke="#FFFFFF" stroke-width="0.08"/><line x1="0" y1="5.4" x2="0" y2="5.6" stroke="#000000" stroke-width="0.01"/><rect x="-0.01" y="5.49" width="0.02" height="0.02" fill="#888888" stroke="#000000" stroke-width="0.01"/></g><g><line x1="3" y1="3.3400000000000003" x2="3" y2="3.6599999999999997" stroke="#000000" stroke-width="0.1"/><line x1="3" y1="3.35" x2="3" y2="3.65" stroke="#FFFFFF" stroke-width="0.12"/><line x1="3" y1="3.35" x2="3" y2="3.65" stroke="#888888" stroke-width="0.01" stroke-dasharray="0.02,0.02"/><line x1="3" y1="3.3400000000000003" x2="3" y2="3.6599999999999997" stroke="#000000" stroke-width="0.04"/></g><g fill="#FFFFFF" stroke="#000000" stroke-width="0.01" transform="translate(3.5 5.5)"><rect x="-0.17500000000000002" y="-0.25" width="0.35000000000000003" height="0.5"/><line x1="-0.17500000000000002" y1="-0.16666666666666669" x2="0.17500000000000002" y2="-0.16666666666666669"/><line x1="-0.17500000000000002" y1="-0.08333333333333334" x2="0.17500000000000002" y2="-0.08333333333333334"/><line x1="-0.17500000000000002" y1="0" x2="0.17500000000000002" y2="0"/><line x1="-0.17500000000000002" y1="0.08333333333333331" x2="0.17500000000000002" y2="0.08333333333333331"/><line x1="-0.17500000000000002" y1="0.16666666666666669" x2="0.17500000000000002" y2="0.16666666666666669"/></g><g fill="#FFFFFF" stroke="#000000" stroke-width="0.01" transform="translate(0.5 3.5)"><rect x="-0.17500000000000002" y="-0.25" width="0.35000000000000003" height="0.5"/><line x1="-0.17500000000000002" y1="-0.16666666666666669" x2="0.17500000000000002" y2="-0.16666666666666669"/><line x1="-0.17500000000000002" y1="-0.08333333333333334" x2="0.17500000000000002" y2="-0.08333333333333334"/><line x1="-0.17500000000000002" y1="0" x2="0.17500000000000002" y2="0"/><line x1="-0.17500000000000002" y1="0.08333333333333331" x2="0.17500000000000002" y2="0.08333333333333331"/><line x1="-0.17500000000000002" y1="0.16666666666666669" x2="0.17500000000000002" y2="0.16666666666666669"/></g></g><text text-anchor="end" dominant-baseline="hanging" style="font: bold 72px serif" fill="#CCCCCC" transform="translate(750 1650)">3</text><line x1="50" y1="2400" x2="750" y2="2400" stroke="#000000" stroke-width="0.01" stroke-dasharray="2,2"/><g id="4" transform="translate(100 3100) scale(100 -100)"><rect x="3" y="2" width="3" height="4" fill="#888888" stroke="#888888" stroke-width="0.1"/><g stroke="#000000" stroke-width="0.01"><line x1="4.5" y1="2" x2="4.5" y2="6"/></g><rect x="0" y="0" width="6" height="2" fill="#888888" stroke="#888888" stroke-width="0.1"/><g stroke="#000000" stroke-width="0.01"><line x1="0" y1="1" x2="6" y2="1"/></g><g stroke="#888888" stroke-width="0.01" stroke-dasharray="0.02,0.02"><line x1="1" y1="2" x2="1" y2="6"/><line x1="2" y1="2" x2="2" y2="6"/><line x1="0" y1="3" x2="3" y2="3"/><line x1="0" y1="4" x2="3" y2="4"/><line x1="0" y1="5" x2="3" y2="5"/></g><rect x="0" y="2" width="3" height="4" fill="none" stroke="#000000" stroke-width="0.1"/><rect x="0" y="2" width="3" height="4" fill="none" stroke="#888888" stroke-width="0.08"/><g><line x1="0.39" y1="2" x2="0.61" y2="2" stroke="#000000" stroke-width="0.1"/><line x1="0.4" y1="2" x2="0.6" y2="2" stroke="#FFFFFF" stroke-width="0.08"/><line x1="0.4" y1="2" x2="0.6" y2="2" stroke="#000000" stroke-width="0.01"/><rect x="0.49" y="1.99" width="0.02" height="0.02" fill="#888888" stroke="#000000" stroke-width="0.01"/></g><g><line x1="0.39" y1="6" x2="0.61" y2="6" stroke="#000000" stroke-width="0.1"/><line x1="0.4" y1="6" x2="0.6" y2="6" stroke="#FFFFFF" stroke-width="0.08"/><line x1="0.4" y1="6" x2="0.6" y2="6" stroke="#000000" stroke-width="0.01"/><rect x="0.49" y="5.99" width="0.02" height="0.02" fill="#888888" stroke="#000000" stroke-width="0.01"/></g><g><line x1="1.39" y1="2" x2="1.61" y2="2" stroke="#000000" stroke-width="0.1"/><line x1="1.4" y1="2" x2="1.6" y2="2" stroke="#FFFFFF" stroke-width="0.08"/><line x1="1.4" y1="2" x2="1.6" y2="2" stroke="#000000" stroke-width="0.01"/><rect x="1.49" y="1.99" width="0.02" height="0.02" fill="#888888" stroke="#000000" stroke-width="0.01"/></g><g><line x1="1.39" y1="6" x2="1.61" y2="6" stroke="#000000" stroke-width="0.1"/><line x1="1.4" y1="6" x2="1.6" y2="6" stroke="#FFFFFF" stroke-width="0.08"/><line x1="1.4" y1="6" x2="1.6" y2="6" stroke="#000000" stroke-width="0.01"/><rect x="1.49" y="5.99" width="0.02" height="0.02" fill="#888888" stroke="#000000" stroke-width="0.01"/></g><g><line x1="2.39" y1="2" x2="2.61" y2="2" stroke="#000000" stroke-width="0.1"/><line x1="2.4" y1="2" x2="2.6" y2="2" stroke="#FFFFFF" stroke-width="0.08"/><line x1="2.4" y1="2" x2="2.6" y2="2" stroke="#000000" stroke-width="0.01"/><rect x="2.49" y="1.99" width="0.02" height="0.02" fill="#888888" stroke="#000000" stroke-width="0.01"/></g><g><line x1="2.39" y1="6" x2="2.61" y2="6" stroke="#000000" stroke-width="0.1"/><line x1="2.4" y1="6" x2="2.6" y2="6" stroke="#FFFFFF" stroke-width="0.08"/><line x1="2.4" y1="6" x2="2.6" y2="6" stroke="#000000" stroke-width="0.01"/><rect x="2.49" y="5.99" width="0.02" height="0.02" fill="#888888" stroke="#000000" stroke-width="0.01"/></g><g><line x1="0" y1="2.39" x2="0" y2="2.61" stroke="#000000" stroke-width="0.1"/><line x1="0" y1="2.4" x2="0" y2="2.6" stroke="#FFFFFF" stroke-width="0.08"/><line x1="0" y1="2.4" x2="0" y2="2.6" stroke="#000000" stroke-width="0.01"/><rect x="-0.01" y="2.49" width="0.02" height="0.02" fill="#888888" stroke="#000000" stroke-width="0.01"/></g><g><line x1="3" y1="2.39" x2="3" y2="2.61" stroke="#000000" stroke-width="0.1"/><line x1="3" y1="2.4" x2="3" y2="2.6" stroke="#FFFFFF" stroke-width="0.08"/><line x1="3" y1="2.4" x2="3" y2="2.6" stroke="#000000" stroke-width="0.01"/><rect x="2.99" y="2.49" width="0.02" height="0.02" fill="#888888" stroke="#000000" stroke-width="0.01"/></g><g><line x1="0" y1="3.39" x2="0" y2="3.61" stroke="#000000" stroke-width="0.1"/><line x1="0" y1="3.4" x2="0" y2="3.6" stroke="#FFFFFF" stroke-width="0.08"/><line x1="0" y1="3.4" x2="0" y2="3.6" stroke="#000000" stroke-width="0.01"/><rect x="-0.01" y="3.49" width="0.02" height="0.02" fill="#888888" stroke="#000000" stroke-width="0.01"/></g><g><line x1="3" y1="3.39" x2="3" y2="3.61" stroke="#000000" stroke-width="0.1"/><line x1="3" y1="3.4" x2="3" y2="3.6" stroke="#FFFFFF" stroke-width="0.08"/><line x1="3" y1="3.4" x2="3" y2="3.6" stroke="#000000" stroke-width="0.01"/><rect x="2.99" y="3.49" width="0.02" height="0.02" fill="#888888" stroke="#000000" stroke-width="0.01"/></g><g><line x1="0" y1="4.390000000000001" x2="0" y2="4.609999999999999" stroke="#000000" stroke-width="0.1"/><line x1="0" y1="4.4" x2="0" y2="4.6" stroke="#FFFFFF" stroke-width="0.08"/><line x1="0" y1="4.4" x2="0" y2="4.6" stroke="#000000" stroke-width="0.01"/><rect x="-0.01" y="4.49" width="0.02" height="0.02" fill="#888888" stroke="#000000" stroke-width="0.01"/></g><g><line x1="3" y1="4.390000000000001" x2="3" y2="4.609999999999999" stroke="#000000" stroke-width="0.1"/><line x1="3" y1="4.4" x2="3" y2="4.6" stroke="#FFFFFF" stroke-width="0.08"/><line x1="3" y1="4.4" x2="3" y2="4.6" stroke="#000000" stroke-width="0.01"/><rect x="2.99" y="4.49" width="0.02" height="0.02" fill="#888888" stroke="#000000" stroke-width="0.01"/></g><g><line x1="0" y1="5.390000000000001" x2="0" y2="5.609999999999999" stroke="#000000" stroke-width="0.1"/><line x1="0" y1="5.4" x2="0" y2="5.6" stroke="#FFFFFF" stroke-width="0.08"/><line x1="0" y1="5.4" x2="0" y2="5.6" stroke="#000000" stroke-width="0.01"/><rect x="-0.01" y="5.49" width="0.02" height="0.02" fill="#888888" stroke="#000000" stroke-width="0.01"/></g><g><line x1="3" y1="5.390000000000001" x2="3" y2="5.609999999999999" stroke="#000000" stroke-width="0.1"/><line x1="3" y1="5.4" x2="3" y2="5.6" stroke="#FFFFFF" stroke-width="0.08"/><line x1="3" y1="5.4" x2="3" y2="5.6" stroke="#000000" stroke-width="0.01"/><rect x="2.99" y="5.49" width="0.02" height="0.02" fill="#888888" stroke="#000000" stroke-width="0.01"/></g><g fill="#FFFFFF" stroke="#000000" stroke-width="0.01" transform="translate(0.5 3.5)"><rect x="-0.17500000000000002" y="-0.25" width="0.35000000000000003" height="0.5"/><line x1="-0.17500000000000002" y1="-0.16666666666666669" x2="0.17500000000000002" y2="-0.16666666666666669"/><line x1="-0.17500000000000002" y1="-0.08333333333333334" x2="0.17500000000000002" y2="-0.08333333333333334"/><line x1="-0.17500000000000002" y1="0" x2="0.17500000000000002" y2="0"/><line x1="-0.17500000000000002" y1="0.08333333333333331" x2="0.17500000000000002" y2="0.08333333333333331"/><line x1="-0.17500000000000002" y1="0.16666666666666669" x2="0.17500000000000002" y2="0.16666666666666669"/></g></g><text text-anchor="end" dominant-baseline="hanging" style="font: bold 72px serif" fill="#CCCCCC" transform="translate(750 2450)">4</text></svg>